{"title":"The Dark Knight Rises 2012 TS FULL NeW SOURCE READNFO XviD - ILL","uid":7491789,"size":2257706425,"categoryP":"video","categoryS":"movies","magnet":"?xt=urn:btih:a9c384d2568166c09e8178536b3bb60946f704e9&amp;dn=The+Dark+Knight+Rises+2012+TS+FULL+NeW+SOURCE+READNFO+XviD+-+ILL&amp;tr=udp%3A%2F%2Ftracker.openbittorrent.com%3A80&amp;tr=udp%3A%2F%2Fopen.demonii.com%3A1337&amp;tr=udp%3A%2F%2Ftracker.coppersurfer.tk%3A6969&amp;tr=udp%3A%2F%2Fexodus.desync.com%3A6969","seeders":0,"leechers":1,"uploader":"Murlok","files":-1,"time":1343764312,"description":"The Dark Knight Rises 2012 TS FULL NeW SOURCE READNFO XviD - ILLUMINATI\n\nSources: ARABIC HDCAM/26K\n\nNotes:\n8 minutes taken from 26k cam to fill in missing areas\nrest is new cam in an unidentified language.\n\nVideo\nID : 0\nFormat : MPEG-4 Visual\nFormat profile : Advanced Simple@L5\nFormat settings, BVOP: 2\nFormat settings, QPel: No\nFormat settings, GMC : No warppoints\nFormat settings, Matrix: Default (H.263)\nMuxing mode: Packed bitstream\nCodec ID : XVID\nCodec ID/Hint: XviD\nDuration : 2h 37mn\nBit rate : 1 757 Kbps\nWidth: 720 pixels\nHeight : 252 pixels\nDisplay aspect ratio : 2.857\nFrame rate : 29.970 fps\nColor space: YUV\nChroma subsampling : 4:2:0\nBit depth: 8 bits\nScan type: Progressive\nCompression mode : Lossy\nBits/(Pixel*Frame) : 0.323\nStream size: 1.93 GiB (92%)\nWriting library: XviD 64\n\nAudio\nID : 1\nFormat : MPEG Audio\nFormat version : Version 1\nFormat profile : Layer 3\nMode : Joint stereo\nMode extension : MS Stereo\nCodec ID : 55\nCodec ID/Hint: MP3\nDuration : 2h 37mn\nBit rate mode: Constant\nBit rate : 128 Kbps\nChannel(s) : 2 channels\nSampling rate: 44.1 KHz\nCompression mode : Lossy\nStream size: 144 MiB (7%)\nAlignment: Split accross interleaves\nInterleave, duration : 33 ms (1.00 video frame)\n\nEnjoy","torrent":{"xt":"urn:btih:a9c384d2568166c09e8178536b3bb60946f704e9","amp;dn":"The+Dark+Knight+Rises+2012+TS+FULL+NeW+SOURCE+READNFO+XviD+-+ILL","amp;tr":["udp%3A%2F%2Ftracker.openbittorrent.com%3A80","udp%3A%2F%2Fopen.demonii.com%3A1337","udp%3A%2F%2Ftracker.coppersurfer.tk%3A6969","udp%3A%2F%2Fexodus.desync.com%3A6969"],"infoHash":"a9c384d2568166c09e8178536b3bb60946f704e9","infoHashBuffer":{"type":"Buffer","data":[169,195,132,210,86,129,102,192,158,129,120,83,107,59,182,9,70,247,4,233]},"announce":[],"urlList":[]}}